<?xml version="1.0" standalone="no"?>
<!DOCTYPE svg PUBLIC "-//W3C//DTD SVG 20010904//EN"
 "http://www.w3.org/TR/2001/REC-SVG-20010904/DTD/svg10.dtd">
<svg version="1.0" xmlns="http://www.w3.org/2000/svg"
 width="432.000000pt" height="640.000000pt" viewBox="0 0 432.000000 640.000000"
 preserveAspectRatio="xMidYMid meet">
<metadata>
Created by potrace 1.15, written by Peter Selinger 2001-2017
</metadata>
<g transform="translate(0.000000,640.000000) scale(0.100000,-0.100000)"
fill="#000000" stroke="none">
<path d="M2781 6353 c95 -102 99 -145 25 -271 -25 -42 -57 -109 -71 -147 -37
-97 -81 -178 -108 -195 -18 -12 -72 -14 -299 -11 -152 1 -282 0 -288 -4 -6 -4
46 -38 117 -77 70 -38 147 -86 171 -106 24 -20 57 -47 74 -58 l29 -22 -53 -30
c-49 -28 -175 -86 -242 -112 -16 -6 -27 -13 -24 -16 7 -6 231 62 270 82 17 9
32 13 35 10 3 -2 -9 -12 -25 -20 -64 -33 -195 -141 -232 -191 -28 -38 -50 -57
-77 -65 -75 -25 -169 -79 -209 -122 -116 -120 -334 -434 -422 -605 -87 -170
-145 -398 -216 -849 -19 -121 -49 -286 -67 -365 -93 -427 -323 -1063 -622
-1719 -84 -186 -397 -840 -488 -1022 -33 -66 -59 -122 -56 -124 2 -2 199 19
438 47 239 27 466 50 505 50 41 0 126 -12 200 -27 152 -33 311 -37 464 -11 52
9 96 15 98 13 2 -2 -15 -32 -37 -66 -47 -72 -67 -149 -54 -200 8 -30 16 -38
66 -58 120 -48 173 -56 357 -57 197 0 248 11 295 66 49 59 32 111 -84 257 -82
103 -109 149 -94 162 4 4 89 31 188 59 99 29 216 63 260 76 43 13 81 22 84 20
2 -3 -8 -55 -23 -117 -33 -143 -34 -177 -1 -208 33 -31 121 -38 476 -39 250
-1 279 1 297 17 34 29 41 78 22 150 -23 85 -56 117 -145 144 -87 26 -173 68
-202 99 -14 16 -22 40 -24 72 l-3 47 69 41 c38 22 96 59 130 84 66 46 203 186
256 260 18 25 34 44 35 42 2 -2 -15 -229 -37 -506 -23 -276 -39 -505 -36 -508
3 -3 34 -8 69 -10 l64 -5 12 88 c7 49 32 334 56 634 l43 545 45 65 c25 36 73
115 108 175 119 209 175 269 351 377 38 24 69 46 69 50 0 8 -23 5 -194 -23
-188 -30 -196 -29 -281 53 l-41 38 28 358 c75 964 139 1748 143 1760 2 6 20
12 39 12 19 0 44 9 57 19 23 19 23 21 7 37 -17 17 -16 19 12 31 44 18 49 42
16 68 -27 21 -27 22 -7 28 12 3 24 12 27 21 8 20 -21 66 -41 66 -8 0 -15 5
-15 10 0 6 5 10 10 10 6 0 10 9 10 20 0 23 -28 40 -66 40 -24 0 -26 2 -20 31
3 17 6 49 6 70 0 33 3 39 21 39 34 0 59 19 59 45 0 21 5 25 30 25 38 0 49 24
28 61 -16 27 -16 28 10 31 35 4 42 46 13 72 -19 18 -19 18 2 39 l20 20 -33 28
c-20 17 -51 31 -78 35 -43 6 -44 7 -38 38 2 17 10 108 17 201 l12 170 45 78
c63 111 82 166 82 243 0 98 -45 252 -121 417 l-13 28 -38 -60 c-61 -97 -127
-231 -150 -305 -26 -84 -21 -152 19 -281 29 -93 33 -169 18 -302 -6 -50 -8
-53 -41 -59 -69 -13 -107 -53 -173 -183 -34 -67 -66 -119 -71 -116 -16 10 -91
-13 -114 -34 -13 -12 -36 -21 -54 -21 -17 0 -34 -5 -37 -11 -5 -7 -15 -5 -31
5 -31 21 -33 20 -44 -9 -9 -23 -11 -23 -37 -10 -38 20 -45 19 -76 -12 -25 -27
-29 -28 -115 -25 l-90 3 9 36 c4 20 10 82 14 137 9 141 10 146 43 146 15 0 84
14 152 31 69 17 158 33 199 36 67 6 72 7 55 21 -29 22 -82 43 -158 63 -81 21
-195 93 -225 142 -28 46 -44 149 -37 232 4 39 16 133 26 211 22 160 20 180
-35 254 -72 98 -138 135 -261 146 l-79 7 46 -50z m142 8 c70 -27 174 -143 184
-206 3 -18 -5 -104 -17 -191 -34 -239 -23 -377 35 -444 12 -13 1 -14 -93 -9
-81 5 -128 14 -194 36 -49 17 -88 29 -88 28 0 -2 44 -28 99 -59 113 -64 186
-86 284 -86 72 0 262 -41 307 -66 23 -13 17 -14 -55 -9 -199 15 -491 57 -559
82 -91 33 -226 100 -337 169 -103 64 -162 92 -222 104 -26 5 27 7 144 3 166
-5 190 -4 216 12 39 23 75 81 117 192 19 51 56 127 81 170 69 118 63 172 -27
269 l-29 30 63 -7 c35 -4 76 -12 91 -18z m-343 -826 l30 -15 -23 -43 c-30 -57
-30 -155 -1 -213 17 -35 18 -43 6 -50 -11 -7 -2 -16 37 -35 48 -25 53 -26 106
-14 48 12 63 11 101 -2 39 -13 74 -44 74 -65 0 -4 -16 -10 -35 -14 -39 -7 -78
6 -138 44 -20 14 -40 23 -43 20 -2 -3 18 -20 45 -38 57 -36 115 -48 159 -32
26 9 33 7 48 -9 25 -28 34 -23 22 12 -9 27 -7 34 15 57 14 15 37 63 51 107 22
68 25 73 21 35 -3 -25 -9 -102 -15 -171 -14 -179 -11 -175 -109 -184 -122 -11
-157 -2 -221 59 -59 55 -161 136 -196 154 -45 24 -158 34 -245 22 -46 -6 -92
-13 -101 -16 -71 -21 77 121 229 221 68 44 123 83 123 87 0 3 -41 -11 -91 -32
-132 -57 -145 -58 -52 -4 45 26 102 66 125 90 24 23 44 43 46 43 2 1 16 -6 32
-14z m162 -101 c-13 -10 -23 -7 -51 14 l-34 27 16 -32 c23 -44 64 -73 103 -73
38 0 55 17 23 22 -14 2 -23 11 -25 24 l-4 22 76 -24 c41 -13 82 -24 90 -24 13
0 14 -2 1 -14 -8 -9 -25 -13 -38 -10 -23 5 -23 5 -5 -10 28 -23 77 -29 111
-15 l30 13 -32 4 c-17 2 -34 9 -36 17 -4 10 4 12 36 8 23 -3 45 -8 48 -12 8
-8 -53 -192 -76 -227 -16 -24 -19 -26 -29 -11 -36 51 -49 85 -47 124 2 42 -23
113 -40 113 -5 0 -2 -14 7 -31 15 -29 22 -124 10 -136 -3 -3 -17 2 -31 11
l-25 17 26 35 c15 19 24 37 20 41 -3 3 -7 4 -8 2 -2 -2 -10 -17 -19 -34 -14
-27 -20 -30 -57 -27 -23 1 -69 -4 -102 -11 l-60 -14 -20 41 c-34 72 -36 126
-7 189 l25 56 70 -32 c59 -26 67 -33 54 -43z m1170 -134 c-4 -48 -5 -49 -48
-66 -44 -17 -65 -48 -49 -73 9 -16 52 -13 88 5 59 31 267 -2 267 -42 0 -14
-22 -24 -58 -25 -24 0 -22 -2 16 -19 37 -17 42 -23 42 -51 l0 -32 -57 6 c-32
4 -69 10 -82 13 -16 5 -22 4 -18 -4 4 -5 26 -13 49 -17 47 -8 91 -46 82 -69
-5 -12 -22 -16 -68 -17 -33 -1 -51 -4 -39 -6 12 -2 27 -11 34 -20 23 -27 -16
-46 -81 -39 -167 18 -216 19 -247 3 l-31 -17 -12 48 c-6 26 -21 71 -34 100
l-23 53 63 120 c71 138 91 163 148 183 61 21 61 21 58 -34z m-1445 -163 c52
-14 180 -105 253 -181 l35 -37 -77 35 c-190 88 -361 126 -414 92 -14 -10 -81
-102 -149 -204 -68 -103 -144 -216 -169 -252 -49 -71 -46 -58 -151 -572 -105
-510 -114 -647 -88 -1343 16 -454 7 -594 -77 -1203 -35 -248 -70 -544 -70
-585 0 -11 -25 -16 -102 -21 -313 -21 -563 -63 -708 -121 -151 -59 -491 -246
-692 -379 -23 -15 -3 31 128 301 403 823 596 1264 787 1798 150 421 220 694
287 1123 54 348 106 571 169 722 67 163 313 528 460 683 105 112 409 187 578
144z m42 -133 c57 -19 142 -52 189 -74 89 -42 112 -49 94 -27 -8 9 10 12 86
13 54 1 153 4 221 7 113 6 127 9 150 31 26 24 59 23 76 -4 9 -14 35 6 35 26 0
17 2 17 35 2 19 -9 28 -9 37 0 7 7 25 12 42 12 16 0 40 9 52 21 12 11 39 24
59 29 36 8 37 8 56 -38 82 -191 97 -340 48 -489 l-21 -63 -39 0 c-21 0 -62 9
-91 20 -64 24 -126 25 -197 4 -51 -15 -54 -15 -75 5 -21 19 -23 20 -39 4 -15
-15 -35 -16 -240 -5 -208 10 -233 14 -381 52 -174 44 -236 48 -356 26 -94 -18
-319 -40 -327 -33 -3 3 22 43 55 89 32 46 107 155 164 244 58 89 116 169 129
178 33 24 105 15 238 -30z m1351 -252 c0 -21 -7 -30 -31 -41 -55 -24 -57 -99
-2 -88 l26 5 -7 -67 c-3 -36 -6 -84 -6 -106 l-1 -40 -19 24 c-12 13 -20 38
-20 58 0 20 -4 32 -10 28 -5 -3 -10 -17 -10 -31 0 -14 -16 -42 -37 -66 -27
-29 -32 -39 -18 -34 93 37 105 34 105 -27 0 -42 -3 -47 -75 -111 -41 -37 -75
-63 -75 -58 0 5 -23 47 -51 93 -50 83 -50 84 -35 117 13 27 21 32 50 32 31 0
36 4 50 43 26 71 36 120 36 173 0 40 5 55 23 72 18 17 66 40 105 51 1 1 2 -11
2 -27z m-1510 -200 c0 -19 -84 -138 -129 -181 -27 -26 -80 -69 -119 -96 -69
-47 -73 -48 -109 -37 -25 8 -46 24 -62 47 -35 51 -36 37 -3 -27 25 -47 31 -52
41 -39 6 9 10 12 8 6 -2 -5 -7 -19 -11 -29 -5 -16 -14 -6 -41 49 -38 75 -42
108 -24 198 14 66 2 61 174 77 66 7 149 18 185 25 83 16 90 17 90 7z m161 -12
c95 -29 225 -57 300 -65 l65 -6 -27 -160 c-15 -87 -31 -174 -35 -191 l-7 -33
-9 25 c-5 14 -16 68 -24 119 -14 90 -19 110 -28 100 -2 -2 -25 -101 -51 -219
-26 -118 -51 -224 -55 -234 -5 -14 -13 -2 -33 53 -35 95 -66 248 -68 344 -1
43 -5 79 -8 81 -4 3 -20 -37 -36 -87 l-30 -92 -17 120 c-18 127 -22 206 -12
243 4 12 8 22 9 22 2 0 31 -9 66 -20z m838 -77 c38 10 81 17 96 17 30 0 145
-39 145 -49 -1 -9 -27 -42 -36 -44 -4 -1 -37 -33 -73 -72 -52 -55 -74 -72
-106 -78 -22 -5 -49 -17 -60 -28 -19 -16 -23 -17 -41 -5 -15 11 -21 27 -23 63
-1 26 -10 81 -20 121 -18 67 -18 73 -3 81 12 7 22 5 35 -6 16 -15 23 -15 86 0z
m-275 -3 l61 0 0 -53 c1 -68 43 -147 104 -193 51 -39 61 -41 86 -14 11 12 31
20 49 20 38 0 35 -1 118 86 l68 72 35 -57 c85 -134 145 -288 145 -372 0 -35
-2 -37 -44 -48 -54 -13 -111 -74 -189 -201 l-53 -85 -104 0 c-58 0 -115 -4
-128 -8 -37 -14 -96 55 -165 191 -111 218 -144 287 -176 362 l-31 76 20 109
c11 60 20 113 20 118 0 6 25 7 61 3 34 -3 89 -6 123 -6z m715 -952 c-35 -436
-65 -781 -67 -767 -2 14 24 364 58 777 33 413 60 761 60 773 0 12 3 20 6 16 4
-3 -22 -363 -57 -799z m-41 -160 c-42 -524 -77 -961 -77 -971 -1 -14 -24 3
-87 60 -201 182 -371 438 -456 686 -28 82 -32 105 -32 207 -1 90 4 132 22 195
33 118 31 113 51 86 17 -22 22 -23 67 -16 27 5 89 9 139 9 l89 1 55 88 c30 49
75 111 100 139 38 40 54 50 89 55 l42 6 0 56 c0 32 -11 92 -26 142 -31 100
-30 103 55 171 25 20 46 37 46 38 0 0 -34 -429 -77 -952z m-1285 -50 c22 -95
49 -188 67 -223 33 -68 244 -353 267 -362 34 -13 178 46 237 97 l34 30 10 -28
c6 -15 14 -38 17 -51 4 -13 61 -112 126 -219 66 -107 119 -195 119 -197 0 -1
-24 4 -52 12 -74 19 -232 18 -315 -3 -37 -9 -131 -45 -208 -79 -214 -95 -232
-100 -365 -99 -65 1 -147 8 -188 18 -108 24 -272 21 -358 -5 -38 -12 -81 -28
-96 -35 l-28 -15 0 266 0 265 47 30 c145 92 311 97 474 14 l47 -23 -5 227 c-5
188 -3 238 10 289 18 70 101 253 114 253 5 0 26 -73 46 -162z"/>
<path d="M2975 6204 c-46 -200 -66 -252 -125 -331 -22 -29 -40 -55 -40 -58 0
-12 119 85 138 113 23 32 48 111 60 194 7 48 6 62 -9 84 l-18 28 -6 -30z"/>
<path d="M2062 4983 c-78 -57 -107 -87 -183 -188 -175 -232 -294 -438 -349
-604 -36 -107 -90 -374 -125 -616 -100 -692 -340 -1361 -959 -2679 -64 -136
-115 -250 -113 -252 9 -9 86 86 123 151 121 218 481 1063 622 1465 164 464
319 1045 392 1470 72 417 88 486 136 588 110 236 314 530 436 630 40 33 84 69
98 81 53 43 10 18 -78 -46z"/>
<path d="M1610 3203 c0 -136 -15 -345 -36 -488 -51 -363 -204 -1009 -376
-1588 -27 -93 -47 -171 -44 -174 8 -9 360 -32 367 -25 5 7 94 737 125 1024 21
201 27 534 16 818 -13 300 -32 540 -44 540 -4 0 -8 -48 -8 -107z"/>
<path d="M2690 2717 c-47 -32 -173 -82 -238 -96 -75 -16 -123 -14 -258 10
-141 25 -250 21 -317 -11 l-42 -20 35 5 c136 18 220 17 344 -5 187 -33 281
-27 406 29 86 38 140 77 140 102 0 16 -35 10 -70 -14z"/>
<path d="M2855 2619 c-66 -22 -143 -53 -172 -69 -137 -77 -265 -91 -484 -52
-129 23 -239 19 -331 -13 -71 -25 -79 -45 -10 -25 62 17 216 29 277 21 33 -5
112 -16 176 -26 162 -24 220 -12 461 95 101 45 198 84 216 87 18 3 35 10 38
14 12 19 -57 7 -171 -32z"/>
<path d="M3020 2523 c-63 -10 -143 -39 -274 -98 -230 -103 -302 -113 -522 -74
-87 15 -142 19 -204 15 -80 -5 -210 -39 -210 -55 0 -4 33 -2 73 5 104 19 198
17 323 -6 223 -42 329 -28 549 72 169 77 250 108 339 128 l81 18 -65 0 c-36 0
-76 -3 -90 -5z"/>
</g>
</svg>
